<mxfile host="Electron" modified="2024-04-04T04:34:20.572Z" agent="Mozilla/5.0 (Windows NT 10.0; Win64; x64) AppleWebKit/537.36 (KHTML, like Gecko) draw.io/24.1.0 Chrome/120.0.6099.109 Electron/28.1.0 Safari/537.36" etag="6bp8I2fb57To-3mi4Yjq" version="24.1.0" type="device">
  <diagram name="Página-1" id="Mt0nv1lMX7RmK_c0K_UG">
    <mxGraphModel dx="1420" dy="830" grid="1" gridSize="10" guides="1" tooltips="1" connect="1" arrows="1" fold="1" page="1" pageScale="1" pageWidth="827" pageHeight="1169" background="#CCE5FF" math="0" shadow="0">
      <root>
        <mxCell id="0" />
        <mxCell id="1" parent="0" />
        <mxCell id="Nl1nGp0fdvwtMMv5hh1q-1" value="&lt;p style=&quot;line-height: 90%;&quot;&gt;&lt;font style=&quot;font-size: 16px;&quot; color=&quot;#000000&quot; face=&quot;Comic Sans MS&quot;&gt;&lt;b&gt;24&lt;br&gt;&lt;br&gt;Hacer un programa para ingresar un número de mes y listar por pantalla a qué trimestre corresponde ese mes. Tener en cuenta esta lista:&lt;br&gt;&lt;br&gt;Mes 1, 2 y 3. Trimestre 1. Mes 4, 5 y 6. Trimestre 2. &lt;br&gt;&lt;br&gt;Mes 7, 8 y 9. Trimestre 3. Mes 10, 11 y 12. Trimestre 4.&lt;br&gt;&lt;br&gt;Resolver este ejercicio utilizando la menor cantidad de salidas de IF posibles, de forma tal que si en un hipotético caso, hubiera años de 200 meses su diagrama no deba ser modificado en tal situación.&lt;br&gt;&lt;br&gt;Recordar también que la división directa con el operador / genera un resultado con fracción. Por ejemplo si mes=7 y usted calcula trimestre=7/3 el resultado que obtendrá es trimestre= 2.33, lo cual es incorrecto.&lt;/b&gt;&lt;/font&gt;&lt;/p&gt;" style="text;whiteSpace=wrap;html=1;fontFamily=Architects Daughter;fontSource=https%3A%2F%2Ffonts.googleapis.com%2Fcss%3Ffamily%3DArchitects%2BDaughter;" vertex="1" parent="1">
          <mxGeometry x="180" width="720" height="240" as="geometry" />
        </mxCell>
        <mxCell id="Nl1nGp0fdvwtMMv5hh1q-156" value="" style="line;strokeWidth=2;direction=south;html=1;hachureGap=4;fontFamily=Architects Daughter;fontSource=https://fonts.googleapis.com/css?family=Architects+Daughter;strokeColor=#000000;container=0;" vertex="1" parent="1">
          <mxGeometry x="2290" y="1490" width="10" height="50" as="geometry" />
        </mxCell>
        <mxCell id="Nl1nGp0fdvwtMMv5hh1q-160" value="" style="group;aspect=fixed;" vertex="1" connectable="0" parent="1">
          <mxGeometry x="90" y="280" width="955" height="742" as="geometry" />
        </mxCell>
        <mxCell id="Nl1nGp0fdvwtMMv5hh1q-51" value="" style="line;strokeWidth=2;html=1;perimeter=backbonePerimeter;points=[];outlineConnect=0;hachureGap=4;fontFamily=Architects Daughter;fontSource=https://fonts.googleapis.com/css?family=Architects+Daughter;strokeColor=#000000;container=0;" vertex="1" parent="Nl1nGp0fdvwtMMv5hh1q-160">
          <mxGeometry x="70" y="520" width="800" height="10" as="geometry" />
        </mxCell>
        <mxCell id="Nl1nGp0fdvwtMMv5hh1q-95" value="" style="line;strokeWidth=2;html=1;perimeter=backbonePerimeter;points=[];outlineConnect=0;hachureGap=4;fontFamily=Architects Daughter;fontSource=https://fonts.googleapis.com/css?family=Architects+Daughter;strokeColor=#000000;container=0;" vertex="1" parent="Nl1nGp0fdvwtMMv5hh1q-160">
          <mxGeometry x="325.5" y="315" width="220" height="10" as="geometry" />
        </mxCell>
        <mxCell id="Nl1nGp0fdvwtMMv5hh1q-96" value="" style="line;strokeWidth=2;html=1;perimeter=backbonePerimeter;points=[];outlineConnect=0;hachureGap=4;fontFamily=Architects Daughter;fontSource=https://fonts.googleapis.com/css?family=Architects+Daughter;strokeColor=#000000;container=0;" vertex="1" parent="Nl1nGp0fdvwtMMv5hh1q-160">
          <mxGeometry x="480.5" y="196" width="65" height="10" as="geometry" />
        </mxCell>
        <mxCell id="Nl1nGp0fdvwtMMv5hh1q-97" value="" style="line;strokeWidth=2;html=1;perimeter=backbonePerimeter;points=[];outlineConnect=0;hachureGap=4;fontFamily=Architects Daughter;fontSource=https://fonts.googleapis.com/css?family=Architects+Daughter;strokeColor=#000000;container=0;" vertex="1" parent="Nl1nGp0fdvwtMMv5hh1q-160">
          <mxGeometry x="80" y="650" width="790" height="10" as="geometry" />
        </mxCell>
        <mxCell id="Nl1nGp0fdvwtMMv5hh1q-98" value="" style="line;strokeWidth=2;html=1;perimeter=backbonePerimeter;points=[];outlineConnect=0;hachureGap=4;fontFamily=Architects Daughter;fontSource=https://fonts.googleapis.com/css?family=Architects+Daughter;strokeColor=#000000;container=0;" vertex="1" parent="Nl1nGp0fdvwtMMv5hh1q-160">
          <mxGeometry x="325.5" y="196" width="65" height="10" as="geometry" />
        </mxCell>
        <mxCell id="Nl1nGp0fdvwtMMv5hh1q-99" value="" style="line;strokeWidth=2;direction=south;html=1;hachureGap=4;fontFamily=Architects Daughter;fontSource=https://fonts.googleapis.com/css?family=Architects+Daughter;strokeColor=#000000;container=0;" vertex="1" parent="Nl1nGp0fdvwtMMv5hh1q-160">
          <mxGeometry x="323.5" y="290" width="10" height="30" as="geometry" />
        </mxCell>
        <mxCell id="Nl1nGp0fdvwtMMv5hh1q-100" value="" style="line;strokeWidth=2;direction=south;html=1;hachureGap=4;fontFamily=Architects Daughter;fontSource=https://fonts.googleapis.com/css?family=Architects+Daughter;strokeColor=#000000;container=0;" vertex="1" parent="Nl1nGp0fdvwtMMv5hh1q-160">
          <mxGeometry x="323.5" y="200" width="10" height="60" as="geometry" />
        </mxCell>
        <mxCell id="Nl1nGp0fdvwtMMv5hh1q-101" value="" style="line;strokeWidth=2;direction=south;html=1;hachureGap=4;fontFamily=Architects Daughter;fontSource=https://fonts.googleapis.com/css?family=Architects+Daughter;strokeColor=#000000;container=0;" vertex="1" parent="Nl1nGp0fdvwtMMv5hh1q-160">
          <mxGeometry x="430.5" y="110" width="10" height="40" as="geometry" />
        </mxCell>
        <mxCell id="Nl1nGp0fdvwtMMv5hh1q-102" value="" style="line;strokeWidth=2;direction=south;html=1;hachureGap=4;fontFamily=Architects Daughter;fontSource=https://fonts.googleapis.com/css?family=Architects+Daughter;strokeColor=#000000;container=0;" vertex="1" parent="Nl1nGp0fdvwtMMv5hh1q-160">
          <mxGeometry x="430.5" y="40" width="10" height="30" as="geometry" />
        </mxCell>
        <mxCell id="Nl1nGp0fdvwtMMv5hh1q-104" value="" style="line;strokeWidth=2;direction=south;html=1;hachureGap=4;fontFamily=Architects Daughter;fontSource=https://fonts.googleapis.com/css?family=Architects+Daughter;strokeColor=#000000;container=0;" vertex="1" parent="Nl1nGp0fdvwtMMv5hh1q-160">
          <mxGeometry x="541.5" y="201" width="10" height="119" as="geometry" />
        </mxCell>
        <mxCell id="Nl1nGp0fdvwtMMv5hh1q-109" value="" style="line;strokeWidth=2;direction=south;html=1;hachureGap=4;fontFamily=Architects Daughter;fontSource=https://fonts.googleapis.com/css?family=Architects+Daughter;strokeColor=#000000;container=0;" vertex="1" parent="Nl1nGp0fdvwtMMv5hh1q-160">
          <mxGeometry x="430.5" y="652" width="10" height="50" as="geometry" />
        </mxCell>
        <mxCell id="Nl1nGp0fdvwtMMv5hh1q-115" value="" style="line;strokeWidth=2;direction=south;html=1;hachureGap=4;fontFamily=Architects Daughter;fontSource=https://fonts.googleapis.com/css?family=Architects+Daughter;strokeColor=#000000;container=0;" vertex="1" parent="Nl1nGp0fdvwtMMv5hh1q-160">
          <mxGeometry x="430.5" y="320" width="10" height="30" as="geometry" />
        </mxCell>
        <mxCell id="Nl1nGp0fdvwtMMv5hh1q-116" value="" style="line;strokeWidth=2;direction=south;html=1;hachureGap=4;fontFamily=Architects Daughter;fontSource=https://fonts.googleapis.com/css?family=Architects+Daughter;strokeColor=#000000;container=0;" vertex="1" parent="Nl1nGp0fdvwtMMv5hh1q-160">
          <mxGeometry x="430.5" y="380" width="10" height="40" as="geometry" />
        </mxCell>
        <mxCell id="Nl1nGp0fdvwtMMv5hh1q-31" value="" style="strokeWidth=2;html=1;shape=mxgraph.flowchart.start_2;whiteSpace=wrap;rounded=0;labelBackgroundColor=none;strokeColor=#000000;align=center;verticalAlign=middle;fontFamily=Helvetica;fontSize=12;fontColor=default;fillColor=#d5e8d4;container=0;" vertex="1" parent="Nl1nGp0fdvwtMMv5hh1q-160">
          <mxGeometry x="415.5" width="40" height="40" as="geometry" />
        </mxCell>
        <mxCell id="Nl1nGp0fdvwtMMv5hh1q-32" value="&lt;b&gt;&lt;font color=&quot;#000000&quot; style=&quot;font-size: 17px;&quot; face=&quot;Comic Sans MS&quot;&gt;I&lt;/font&gt;&lt;/b&gt;" style="text;strokeColor=none;align=center;fillColor=none;html=1;verticalAlign=middle;whiteSpace=wrap;rounded=0;fontFamily=Architects Daughter;fontSource=https%3A%2F%2Ffonts.googleapis.com%2Fcss%3Ffamily%3DArchitects%2BDaughter;container=0;" vertex="1" parent="Nl1nGp0fdvwtMMv5hh1q-160">
          <mxGeometry x="420.5" y="5" width="30" height="30" as="geometry" />
        </mxCell>
        <mxCell id="Nl1nGp0fdvwtMMv5hh1q-34" value="" style="strokeWidth=2;html=1;shape=mxgraph.flowchart.start_2;whiteSpace=wrap;rounded=0;labelBackgroundColor=none;strokeColor=#000000;align=center;verticalAlign=middle;fontFamily=Helvetica;fontSize=12;fontColor=default;fillColor=#d5e8d4;container=0;" vertex="1" parent="Nl1nGp0fdvwtMMv5hh1q-160">
          <mxGeometry x="415.5" y="702" width="40" height="40" as="geometry" />
        </mxCell>
        <mxCell id="Nl1nGp0fdvwtMMv5hh1q-35" value="&lt;b&gt;&lt;font color=&quot;#000000&quot; style=&quot;font-size: 17px;&quot; face=&quot;Comic Sans MS&quot;&gt;F&lt;/font&gt;&lt;/b&gt;" style="text;strokeColor=none;align=center;fillColor=none;html=1;verticalAlign=middle;whiteSpace=wrap;rounded=0;fontFamily=Architects Daughter;fontSource=https://fonts.googleapis.com/css?family=Architects+Daughter;container=0;" vertex="1" parent="Nl1nGp0fdvwtMMv5hh1q-160">
          <mxGeometry x="420.5" y="707" width="30" height="30" as="geometry" />
        </mxCell>
        <mxCell id="Nl1nGp0fdvwtMMv5hh1q-37" value="" style="shape=trapezoid;perimeter=trapezoidPerimeter;whiteSpace=wrap;html=1;fixedSize=1;rounded=0;labelBackgroundColor=none;strokeColor=#121211;strokeWidth=2;align=center;verticalAlign=middle;fontFamily=Helvetica;fontSize=12;fontColor=default;fillColor=#d5e8d4;direction=west;container=0;aspect=fixed;" vertex="1" parent="Nl1nGp0fdvwtMMv5hh1q-160">
          <mxGeometry x="375.5" y="70" width="120" height="40" as="geometry">
            <mxRectangle x="-1020" y="-650" width="50" height="40" as="alternateBounds" />
          </mxGeometry>
        </mxCell>
        <mxCell id="Nl1nGp0fdvwtMMv5hh1q-38" value="&lt;font face=&quot;Comic Sans MS&quot; color=&quot;#000000&quot;&gt;&lt;span style=&quot;font-size: 16px;&quot;&gt;&lt;b&gt;&amp;nbsp;mes&lt;/b&gt;&lt;/span&gt;&lt;/font&gt;" style="text;strokeColor=none;align=center;fillColor=none;html=1;verticalAlign=middle;whiteSpace=wrap;rounded=0;fontFamily=Architects Daughter;fontSource=https://fonts.googleapis.com/css?family=Architects+Daughter;aspect=fixed;container=0;" vertex="1" parent="Nl1nGp0fdvwtMMv5hh1q-160">
          <mxGeometry x="385.5" y="70" width="90" height="40" as="geometry" />
        </mxCell>
        <mxCell id="Nl1nGp0fdvwtMMv5hh1q-40" value="" style="rhombus;whiteSpace=wrap;html=1;rounded=0;labelBackgroundColor=none;strokeColor=#0F140C;strokeWidth=2;align=center;verticalAlign=middle;fontFamily=Helvetica;fontSize=12;fontColor=default;fillColor=#d5e8d4;container=0;" vertex="1" parent="Nl1nGp0fdvwtMMv5hh1q-160">
          <mxGeometry x="390.5" y="150" width="90" height="100" as="geometry" />
        </mxCell>
        <mxCell id="Nl1nGp0fdvwtMMv5hh1q-41" value="&lt;font color=&quot;#000000&quot; size=&quot;1&quot; face=&quot;Comic Sans MS&quot;&gt;&lt;b style=&quot;font-size: 14px;&quot;&gt;mes % 3 !=&lt;/b&gt;&lt;/font&gt;&lt;div&gt;&lt;font color=&quot;#000000&quot; size=&quot;1&quot; face=&quot;Comic Sans MS&quot;&gt;&lt;b style=&quot;font-size: 14px;&quot;&gt;0&lt;/b&gt;&lt;/font&gt;&lt;/div&gt;" style="text;strokeColor=none;align=center;fillColor=none;html=1;verticalAlign=middle;whiteSpace=wrap;rounded=0;fontFamily=Architects Daughter;fontSource=https%3A%2F%2Ffonts.googleapis.com%2Fcss%3Ffamily%3DArchitects%2BDaughter;container=0;" vertex="1" parent="Nl1nGp0fdvwtMMv5hh1q-160">
          <mxGeometry x="404.5" y="184" width="60" height="50" as="geometry" />
        </mxCell>
        <mxCell id="Nl1nGp0fdvwtMMv5hh1q-43" value="" style="rounded=0;whiteSpace=wrap;html=1;labelBackgroundColor=none;strokeColor=#0f100e;strokeWidth=2;align=center;verticalAlign=middle;fontFamily=Helvetica;fontSize=12;fontColor=default;fillColor=#d5e8d4;container=0;" vertex="1" parent="Nl1nGp0fdvwtMMv5hh1q-160">
          <mxGeometry x="275.5" y="260" width="120" height="30" as="geometry" />
        </mxCell>
        <mxCell id="Nl1nGp0fdvwtMMv5hh1q-44" value="&lt;b&gt;&lt;font color=&quot;#000000&quot; style=&quot;font-size: 15px;&quot; face=&quot;Comic Sans MS&quot;&gt;mes = mes +3&lt;/font&gt;&lt;/b&gt;" style="text;strokeColor=none;align=center;fillColor=none;html=1;verticalAlign=middle;whiteSpace=wrap;rounded=0;fontFamily=Architects Daughter;fontSource=https://fonts.googleapis.com/css?family=Architects+Daughter;container=0;" vertex="1" parent="Nl1nGp0fdvwtMMv5hh1q-160">
          <mxGeometry x="280.5" y="265" width="110" height="20" as="geometry" />
        </mxCell>
        <mxCell id="Nl1nGp0fdvwtMMv5hh1q-46" value="" style="rounded=0;whiteSpace=wrap;html=1;labelBackgroundColor=none;strokeColor=#0f100e;strokeWidth=2;align=center;verticalAlign=middle;fontFamily=Helvetica;fontSize=12;fontColor=default;fillColor=#d5e8d4;container=0;" vertex="1" parent="Nl1nGp0fdvwtMMv5hh1q-160">
          <mxGeometry x="375.5" y="350" width="120" height="30" as="geometry" />
        </mxCell>
        <mxCell id="Nl1nGp0fdvwtMMv5hh1q-47" value="&lt;b&gt;&lt;font color=&quot;#000000&quot; style=&quot;font-size: 15px;&quot; face=&quot;Comic Sans MS&quot;&gt;mes = mes / 3&lt;/font&gt;&lt;/b&gt;" style="text;strokeColor=none;align=center;fillColor=none;html=1;verticalAlign=middle;whiteSpace=wrap;rounded=0;fontFamily=Architects Daughter;fontSource=https://fonts.googleapis.com/css?family=Architects+Daughter;container=0;" vertex="1" parent="Nl1nGp0fdvwtMMv5hh1q-160">
          <mxGeometry x="380.5" y="355" width="110" height="20" as="geometry" />
        </mxCell>
        <mxCell id="Nl1nGp0fdvwtMMv5hh1q-49" value="" style="rhombus;whiteSpace=wrap;html=1;rounded=0;labelBackgroundColor=none;strokeColor=#0F140C;strokeWidth=2;align=center;verticalAlign=middle;fontFamily=Helvetica;fontSize=12;fontColor=default;fillColor=#d5e8d4;container=0;" vertex="1" parent="Nl1nGp0fdvwtMMv5hh1q-160">
          <mxGeometry x="390.5" y="420" width="90" height="100" as="geometry" />
        </mxCell>
        <mxCell id="Nl1nGp0fdvwtMMv5hh1q-50" value="&lt;font face=&quot;Comic Sans MS&quot; color=&quot;#000000&quot;&gt;&lt;span style=&quot;font-size: 14px;&quot;&gt;&lt;b&gt;mes&lt;/b&gt;&lt;/span&gt;&lt;/font&gt;" style="text;strokeColor=none;align=center;fillColor=none;html=1;verticalAlign=middle;whiteSpace=wrap;rounded=0;fontFamily=Architects Daughter;fontSource=https%3A%2F%2Ffonts.googleapis.com%2Fcss%3Ffamily%3DArchitects%2BDaughter;container=0;" vertex="1" parent="Nl1nGp0fdvwtMMv5hh1q-160">
          <mxGeometry x="405.5" y="445" width="60" height="50" as="geometry" />
        </mxCell>
        <mxCell id="Nl1nGp0fdvwtMMv5hh1q-123" value="" style="group" vertex="1" connectable="0" parent="Nl1nGp0fdvwtMMv5hh1q-160">
          <mxGeometry x="450.5" y="493.75" width="160" height="160" as="geometry" />
        </mxCell>
        <mxCell id="Nl1nGp0fdvwtMMv5hh1q-105" value="" style="line;strokeWidth=2;direction=south;html=1;hachureGap=4;fontFamily=Architects Daughter;fontSource=https://fonts.googleapis.com/css?family=Architects+Daughter;strokeColor=#000000;container=0;" vertex="1" parent="Nl1nGp0fdvwtMMv5hh1q-123">
          <mxGeometry x="75" y="30" width="10" height="40" as="geometry" />
        </mxCell>
        <mxCell id="Nl1nGp0fdvwtMMv5hh1q-106" value="" style="line;strokeWidth=2;direction=south;html=1;hachureGap=4;fontFamily=Architects Daughter;fontSource=https://fonts.googleapis.com/css?family=Architects+Daughter;strokeColor=#000000;container=0;" vertex="1" parent="Nl1nGp0fdvwtMMv5hh1q-123">
          <mxGeometry x="75" y="110" width="10" height="50" as="geometry" />
        </mxCell>
        <mxCell id="Nl1nGp0fdvwtMMv5hh1q-56" value="" style="strokeWidth=2;html=1;shape=mxgraph.flowchart.start_2;whiteSpace=wrap;rounded=0;labelBackgroundColor=none;strokeColor=#000000;align=center;verticalAlign=middle;fontFamily=Helvetica;fontSize=12;fontColor=default;fillColor=#d5e8d4;aspect=fixed;container=0;" vertex="1" parent="Nl1nGp0fdvwtMMv5hh1q-123">
          <mxGeometry x="65" width="30" height="30" as="geometry" />
        </mxCell>
        <mxCell id="Nl1nGp0fdvwtMMv5hh1q-57" value="&lt;b&gt;&lt;font color=&quot;#000000&quot; style=&quot;font-size: 16px;&quot; face=&quot;Comic Sans MS&quot;&gt;3&lt;/font&gt;&lt;/b&gt;" style="text;strokeColor=none;align=center;fillColor=none;html=1;verticalAlign=middle;whiteSpace=wrap;rounded=0;fontFamily=Architects Daughter;fontSource=https://fonts.googleapis.com/css?family=Architects+Daughter;aspect=fixed;container=0;" vertex="1" parent="Nl1nGp0fdvwtMMv5hh1q-123">
          <mxGeometry x="57.5" y="3.75" width="45" height="22.5" as="geometry" />
        </mxCell>
        <mxCell id="Nl1nGp0fdvwtMMv5hh1q-80" value="" style="shape=trapezoid;perimeter=trapezoidPerimeter;whiteSpace=wrap;html=1;fixedSize=1;rounded=0;labelBackgroundColor=none;strokeColor=#0F140C;strokeWidth=2;align=center;verticalAlign=middle;fontFamily=Helvetica;fontSize=12;fontColor=default;fillColor=#d5e8d4;container=0;" vertex="1" parent="Nl1nGp0fdvwtMMv5hh1q-123">
          <mxGeometry x="10" y="72" width="140" height="40" as="geometry" />
        </mxCell>
        <mxCell id="Nl1nGp0fdvwtMMv5hh1q-81" value="&lt;b&gt;&lt;font color=&quot;#000000&quot; style=&quot;font-size: 16px;&quot; face=&quot;Comic Sans MS&quot;&gt;Trimestre_3&lt;/font&gt;&lt;/b&gt;" style="text;strokeColor=none;align=center;fillColor=none;html=1;verticalAlign=middle;whiteSpace=wrap;rounded=0;fontFamily=Architects Daughter;fontSource=https://fonts.googleapis.com/css?family=Architects+Daughter;container=0;" vertex="1" parent="Nl1nGp0fdvwtMMv5hh1q-123">
          <mxGeometry y="77" width="160" height="30" as="geometry" />
        </mxCell>
        <mxCell id="Nl1nGp0fdvwtMMv5hh1q-132" value="" style="group;aspect=fixed;" vertex="1" connectable="0" parent="Nl1nGp0fdvwtMMv5hh1q-160">
          <mxGeometry x="225.5" y="491.75" width="160" height="162" as="geometry" />
        </mxCell>
        <mxCell id="Nl1nGp0fdvwtMMv5hh1q-126" value="" style="line;strokeWidth=2;direction=south;html=1;hachureGap=4;fontFamily=Architects Daughter;fontSource=https://fonts.googleapis.com/css?family=Architects+Daughter;strokeColor=#000000;container=0;" vertex="1" parent="Nl1nGp0fdvwtMMv5hh1q-132">
          <mxGeometry x="75" y="32" width="10" height="40" as="geometry" />
        </mxCell>
        <mxCell id="Nl1nGp0fdvwtMMv5hh1q-127" value="" style="line;strokeWidth=2;direction=south;html=1;hachureGap=4;fontFamily=Architects Daughter;fontSource=https://fonts.googleapis.com/css?family=Architects+Daughter;strokeColor=#000000;container=0;" vertex="1" parent="Nl1nGp0fdvwtMMv5hh1q-132">
          <mxGeometry x="75" y="112" width="10" height="50" as="geometry" />
        </mxCell>
        <mxCell id="Nl1nGp0fdvwtMMv5hh1q-128" value="" style="strokeWidth=2;html=1;shape=mxgraph.flowchart.start_2;whiteSpace=wrap;rounded=0;labelBackgroundColor=none;strokeColor=#000000;align=center;verticalAlign=middle;fontFamily=Helvetica;fontSize=12;fontColor=default;fillColor=#d5e8d4;aspect=fixed;container=0;" vertex="1" parent="Nl1nGp0fdvwtMMv5hh1q-132">
          <mxGeometry x="65" width="30" height="30" as="geometry" />
        </mxCell>
        <mxCell id="Nl1nGp0fdvwtMMv5hh1q-129" value="&lt;b&gt;&lt;font color=&quot;#000000&quot; style=&quot;font-size: 16px;&quot; face=&quot;Comic Sans MS&quot;&gt;2&lt;/font&gt;&lt;/b&gt;" style="text;strokeColor=none;align=center;fillColor=none;html=1;verticalAlign=middle;whiteSpace=wrap;rounded=0;fontFamily=Architects Daughter;fontSource=https://fonts.googleapis.com/css?family=Architects+Daughter;aspect=fixed;container=0;" vertex="1" parent="Nl1nGp0fdvwtMMv5hh1q-132">
          <mxGeometry x="57.5" y="3.75" width="45" height="22.5" as="geometry" />
        </mxCell>
        <mxCell id="Nl1nGp0fdvwtMMv5hh1q-130" value="" style="shape=trapezoid;perimeter=trapezoidPerimeter;whiteSpace=wrap;html=1;fixedSize=1;rounded=0;labelBackgroundColor=none;strokeColor=#0F140C;strokeWidth=2;align=center;verticalAlign=middle;fontFamily=Helvetica;fontSize=12;fontColor=default;fillColor=#d5e8d4;container=0;" vertex="1" parent="Nl1nGp0fdvwtMMv5hh1q-132">
          <mxGeometry x="10" y="72" width="140" height="40" as="geometry" />
        </mxCell>
        <mxCell id="Nl1nGp0fdvwtMMv5hh1q-131" value="&lt;b&gt;&lt;font color=&quot;#000000&quot; style=&quot;font-size: 16px;&quot; face=&quot;Comic Sans MS&quot;&gt;Trimestre_2&lt;/font&gt;&lt;/b&gt;" style="text;strokeColor=none;align=center;fillColor=none;html=1;verticalAlign=middle;whiteSpace=wrap;rounded=0;fontFamily=Architects Daughter;fontSource=https://fonts.googleapis.com/css?family=Architects+Daughter;container=0;" vertex="1" parent="Nl1nGp0fdvwtMMv5hh1q-132">
          <mxGeometry y="77" width="160" height="30" as="geometry" />
        </mxCell>
        <mxCell id="Nl1nGp0fdvwtMMv5hh1q-139" value="" style="group;aspect=fixed;" vertex="1" connectable="0" parent="Nl1nGp0fdvwtMMv5hh1q-160">
          <mxGeometry y="495" width="160" height="160" as="geometry" />
        </mxCell>
        <mxCell id="Nl1nGp0fdvwtMMv5hh1q-133" value="" style="line;strokeWidth=2;direction=south;html=1;hachureGap=4;fontFamily=Architects Daughter;fontSource=https://fonts.googleapis.com/css?family=Architects+Daughter;strokeColor=#000000;container=0;" vertex="1" parent="Nl1nGp0fdvwtMMv5hh1q-139">
          <mxGeometry x="73" y="110" width="10" height="50" as="geometry" />
        </mxCell>
        <mxCell id="Nl1nGp0fdvwtMMv5hh1q-134" value="" style="line;strokeWidth=2;direction=south;html=1;hachureGap=4;fontFamily=Architects Daughter;fontSource=https://fonts.googleapis.com/css?family=Architects+Daughter;strokeColor=#000000;container=0;" vertex="1" parent="Nl1nGp0fdvwtMMv5hh1q-139">
          <mxGeometry x="73" y="30" width="10" height="40" as="geometry" />
        </mxCell>
        <mxCell id="Nl1nGp0fdvwtMMv5hh1q-135" value="" style="strokeWidth=2;html=1;shape=mxgraph.flowchart.start_2;whiteSpace=wrap;rounded=0;labelBackgroundColor=none;strokeColor=#000000;align=center;verticalAlign=middle;fontFamily=Helvetica;fontSize=12;fontColor=default;fillColor=#d5e8d4;aspect=fixed;container=0;" vertex="1" parent="Nl1nGp0fdvwtMMv5hh1q-139">
          <mxGeometry x="65" width="30" height="30" as="geometry" />
        </mxCell>
        <mxCell id="Nl1nGp0fdvwtMMv5hh1q-136" value="&lt;b&gt;&lt;font color=&quot;#000000&quot; style=&quot;font-size: 16px;&quot; face=&quot;Comic Sans MS&quot;&gt;1&lt;/font&gt;&lt;/b&gt;" style="text;strokeColor=none;align=center;fillColor=none;html=1;verticalAlign=middle;whiteSpace=wrap;rounded=0;fontFamily=Architects Daughter;fontSource=https://fonts.googleapis.com/css?family=Architects+Daughter;aspect=fixed;container=0;" vertex="1" parent="Nl1nGp0fdvwtMMv5hh1q-139">
          <mxGeometry x="57.5" y="3.75" width="45" height="22.5" as="geometry" />
        </mxCell>
        <mxCell id="Nl1nGp0fdvwtMMv5hh1q-137" value="" style="shape=trapezoid;perimeter=trapezoidPerimeter;whiteSpace=wrap;html=1;fixedSize=1;rounded=0;labelBackgroundColor=none;strokeColor=#0F140C;strokeWidth=2;align=center;verticalAlign=middle;fontFamily=Helvetica;fontSize=12;fontColor=default;fillColor=#d5e8d4;container=0;" vertex="1" parent="Nl1nGp0fdvwtMMv5hh1q-139">
          <mxGeometry x="10" y="70" width="140" height="40" as="geometry" />
        </mxCell>
        <mxCell id="Nl1nGp0fdvwtMMv5hh1q-138" value="&lt;font face=&quot;Comic Sans MS&quot; color=&quot;#000000&quot;&gt;&lt;span style=&quot;font-size: 16px;&quot;&gt;&lt;b&gt;Trimestre_1&lt;/b&gt;&lt;/span&gt;&lt;/font&gt;" style="text;strokeColor=none;align=center;fillColor=none;html=1;verticalAlign=middle;whiteSpace=wrap;rounded=0;fontFamily=Architects Daughter;fontSource=https://fonts.googleapis.com/css?family=Architects+Daughter;container=0;" vertex="1" parent="Nl1nGp0fdvwtMMv5hh1q-139">
          <mxGeometry y="75" width="160" height="30" as="geometry" />
        </mxCell>
        <mxCell id="Nl1nGp0fdvwtMMv5hh1q-142" value="" style="group;aspect=fixed;" vertex="1" connectable="0" parent="Nl1nGp0fdvwtMMv5hh1q-160">
          <mxGeometry x="795" y="560" width="160" height="40" as="geometry" />
        </mxCell>
        <mxCell id="Nl1nGp0fdvwtMMv5hh1q-140" value="" style="shape=trapezoid;perimeter=trapezoidPerimeter;whiteSpace=wrap;html=1;fixedSize=1;rounded=0;labelBackgroundColor=none;strokeColor=#0F140C;strokeWidth=2;align=center;verticalAlign=middle;fontFamily=Helvetica;fontSize=12;fontColor=default;fillColor=#d5e8d4;container=0;" vertex="1" parent="Nl1nGp0fdvwtMMv5hh1q-142">
          <mxGeometry x="10" width="140" height="40" as="geometry" />
        </mxCell>
        <mxCell id="Nl1nGp0fdvwtMMv5hh1q-141" value="&lt;b&gt;&lt;font color=&quot;#000000&quot; style=&quot;font-size: 16px;&quot; face=&quot;Comic Sans MS&quot;&gt;mes_no_existe&lt;/font&gt;&lt;/b&gt;" style="text;strokeColor=none;align=center;fillColor=none;html=1;verticalAlign=middle;whiteSpace=wrap;rounded=0;fontFamily=Architects Daughter;fontSource=https://fonts.googleapis.com/css?family=Architects+Daughter;container=0;" vertex="1" parent="Nl1nGp0fdvwtMMv5hh1q-142">
          <mxGeometry y="5" width="160" height="30" as="geometry" />
        </mxCell>
        <mxCell id="Nl1nGp0fdvwtMMv5hh1q-143" value="" style="group;aspect=fixed;" vertex="1" connectable="0" parent="Nl1nGp0fdvwtMMv5hh1q-160">
          <mxGeometry x="830" y="485" width="90" height="35" as="geometry" />
        </mxCell>
        <mxCell id="Nl1nGp0fdvwtMMv5hh1q-71" value="" style="rounded=1;whiteSpace=wrap;html=1;absoluteArcSize=1;arcSize=14;strokeWidth=2;labelBackgroundColor=none;strokeColor=#0F140C;align=center;verticalAlign=middle;fontFamily=Helvetica;fontSize=12;fontColor=default;fillColor=#d5e8d4;aspect=fixed;container=0;" vertex="1" parent="Nl1nGp0fdvwtMMv5hh1q-143">
          <mxGeometry x="2.5" width="85" height="35" as="geometry" />
        </mxCell>
        <mxCell id="Nl1nGp0fdvwtMMv5hh1q-72" value="&lt;b&gt;&lt;font color=&quot;#000000&quot; style=&quot;font-size: 14px;&quot; face=&quot;Comic Sans MS&quot;&gt;default&lt;/font&gt;&lt;/b&gt;" style="text;strokeColor=none;align=center;fillColor=none;html=1;verticalAlign=middle;whiteSpace=wrap;rounded=0;fontFamily=Architects Daughter;fontSource=https://fonts.googleapis.com/css?family=Architects+Daughter;aspect=fixed;container=0;" vertex="1" parent="Nl1nGp0fdvwtMMv5hh1q-143">
          <mxGeometry y="2.5" width="90" height="30" as="geometry" />
        </mxCell>
        <mxCell id="Nl1nGp0fdvwtMMv5hh1q-153" value="" style="group;aspect=fixed;" vertex="1" connectable="0" parent="Nl1nGp0fdvwtMMv5hh1q-160">
          <mxGeometry x="629" y="493" width="160" height="158.25" as="geometry" />
        </mxCell>
        <mxCell id="Nl1nGp0fdvwtMMv5hh1q-146" value="" style="line;strokeWidth=2;direction=south;html=1;hachureGap=4;fontFamily=Architects Daughter;fontSource=https://fonts.googleapis.com/css?family=Architects+Daughter;strokeColor=#000000;container=0;" vertex="1" parent="Nl1nGp0fdvwtMMv5hh1q-153">
          <mxGeometry x="77.5" y="30" width="10" height="40" as="geometry" />
        </mxCell>
        <mxCell id="Nl1nGp0fdvwtMMv5hh1q-147" value="" style="line;strokeWidth=2;direction=south;html=1;hachureGap=4;fontFamily=Architects Daughter;fontSource=https://fonts.googleapis.com/css?family=Architects+Daughter;strokeColor=#000000;container=0;" vertex="1" parent="Nl1nGp0fdvwtMMv5hh1q-153">
          <mxGeometry x="77.5" y="112.25" width="10" height="50" as="geometry" />
        </mxCell>
        <mxCell id="Nl1nGp0fdvwtMMv5hh1q-148" value="" style="strokeWidth=2;html=1;shape=mxgraph.flowchart.start_2;whiteSpace=wrap;rounded=0;labelBackgroundColor=none;strokeColor=#000000;align=center;verticalAlign=middle;fontFamily=Helvetica;fontSize=12;fontColor=default;fillColor=#d5e8d4;aspect=fixed;container=0;" vertex="1" parent="Nl1nGp0fdvwtMMv5hh1q-153">
          <mxGeometry x="67.5" width="30" height="30" as="geometry" />
        </mxCell>
        <mxCell id="Nl1nGp0fdvwtMMv5hh1q-149" value="&lt;b&gt;&lt;font color=&quot;#000000&quot; style=&quot;font-size: 16px;&quot; face=&quot;Comic Sans MS&quot;&gt;4&lt;/font&gt;&lt;/b&gt;" style="text;strokeColor=none;align=center;fillColor=none;html=1;verticalAlign=middle;whiteSpace=wrap;rounded=0;fontFamily=Architects Daughter;fontSource=https://fonts.googleapis.com/css?family=Architects+Daughter;aspect=fixed;container=0;" vertex="1" parent="Nl1nGp0fdvwtMMv5hh1q-153">
          <mxGeometry x="60" y="3.75" width="45" height="22.5" as="geometry" />
        </mxCell>
        <mxCell id="Nl1nGp0fdvwtMMv5hh1q-150" value="" style="shape=trapezoid;perimeter=trapezoidPerimeter;whiteSpace=wrap;html=1;fixedSize=1;rounded=0;labelBackgroundColor=none;strokeColor=#0F140C;strokeWidth=2;align=center;verticalAlign=middle;fontFamily=Helvetica;fontSize=12;fontColor=default;fillColor=#d5e8d4;container=0;" vertex="1" parent="Nl1nGp0fdvwtMMv5hh1q-153">
          <mxGeometry x="10" y="68.25" width="140" height="40" as="geometry" />
        </mxCell>
        <mxCell id="Nl1nGp0fdvwtMMv5hh1q-151" value="&lt;b&gt;&lt;font color=&quot;#000000&quot; style=&quot;font-size: 16px;&quot; face=&quot;Comic Sans MS&quot;&gt;Trimestre_4&lt;/font&gt;&lt;/b&gt;" style="text;strokeColor=none;align=center;fillColor=none;html=1;verticalAlign=middle;whiteSpace=wrap;rounded=0;fontFamily=Architects Daughter;fontSource=https://fonts.googleapis.com/css?family=Architects+Daughter;container=0;" vertex="1" parent="Nl1nGp0fdvwtMMv5hh1q-153">
          <mxGeometry y="73.25" width="160" height="30" as="geometry" />
        </mxCell>
        <mxCell id="Nl1nGp0fdvwtMMv5hh1q-152" style="edgeStyle=orthogonalEdgeStyle;rounded=0;sketch=1;hachureGap=4;jiggle=2;curveFitting=1;orthogonalLoop=1;jettySize=auto;html=1;exitX=0.5;exitY=1;exitDx=0;exitDy=0;fontFamily=Architects Daughter;fontSource=https://fonts.googleapis.com/css?family=Architects+Daughter;" edge="1" parent="Nl1nGp0fdvwtMMv5hh1q-153" source="Nl1nGp0fdvwtMMv5hh1q-151" target="Nl1nGp0fdvwtMMv5hh1q-151">
          <mxGeometry relative="1" as="geometry" />
        </mxCell>
        <mxCell id="Nl1nGp0fdvwtMMv5hh1q-155" value="" style="line;strokeWidth=2;direction=south;html=1;hachureGap=4;fontFamily=Architects Daughter;fontSource=https://fonts.googleapis.com/css?family=Architects+Daughter;strokeColor=#000000;container=0;" vertex="1" parent="Nl1nGp0fdvwtMMv5hh1q-160">
          <mxGeometry x="867" y="600" width="10" height="60" as="geometry" />
        </mxCell>
        <mxCell id="Nl1nGp0fdvwtMMv5hh1q-157" value="" style="line;strokeWidth=2;direction=south;html=1;hachureGap=4;fontFamily=Architects Daughter;fontSource=https://fonts.googleapis.com/css?family=Architects+Daughter;strokeColor=#000000;container=0;" vertex="1" parent="Nl1nGp0fdvwtMMv5hh1q-160">
          <mxGeometry x="867" y="523" width="10" height="37" as="geometry" />
        </mxCell>
        <mxCell id="Nl1nGp0fdvwtMMv5hh1q-158" value="&lt;b&gt;&lt;font color=&quot;#000000&quot; style=&quot;font-size: 13px;&quot; face=&quot;Comic Sans MS&quot;&gt;V&lt;/font&gt;&lt;/b&gt;" style="text;strokeColor=none;align=center;fillColor=none;html=1;verticalAlign=middle;whiteSpace=wrap;rounded=0;fontFamily=Architects Daughter;fontSource=https%3A%2F%2Ffonts.googleapis.com%2Fcss%3Ffamily%3DArchitects%2BDaughter;" vertex="1" parent="Nl1nGp0fdvwtMMv5hh1q-160">
          <mxGeometry x="312" y="176" width="33" height="30" as="geometry" />
        </mxCell>
        <mxCell id="Nl1nGp0fdvwtMMv5hh1q-159" value="&lt;b&gt;&lt;font color=&quot;#000000&quot; style=&quot;font-size: 13px;&quot; face=&quot;Comic Sans MS&quot;&gt;F&lt;/font&gt;&lt;/b&gt;" style="text;strokeColor=none;align=center;fillColor=none;html=1;verticalAlign=middle;whiteSpace=wrap;rounded=0;fontFamily=Architects Daughter;fontSource=https://fonts.googleapis.com/css?family=Architects+Daughter;" vertex="1" parent="Nl1nGp0fdvwtMMv5hh1q-160">
          <mxGeometry x="531.5" y="176" width="20" height="30" as="geometry" />
        </mxCell>
      </root>
    </mxGraphModel>
  </diagram>
</mxfile>
